<svg id="Layer_5" enable-background="new 0 0 64 64" height="512" viewBox="0 0 64 64" width="512" xmlns="http://www.w3.org/2000/svg"><g><g><g><path d="m12 16v28h-2v7 6 5h6.54c-.34-.59-.54-1.27-.54-2 0-2.21 1.79-4 4-4 1.5 0 2.8.82 3.49 2.04l.51-.04c.45 0 .87.09 1.27.22.45-1.45 1.44-2.67 2.73-3.41v-.01-22.8-16z" fill="#ffeaa7"/></g><g><path d="m48 6v22h-6v4h-2v24.13c-.32-.09-.65-.13-1-.13-1.07 0-2.03.42-2.75 1.1-1.02-1.85-2.99-3.1-5.25-3.1-1.09 0-2.12.29-3 .8v-22.8-16-6l6-1.2 4-.8 4-.8z" fill="#dfb28b"/></g><g><path d="m56 22v6h-4v-6h2z" fill="#fcd770"/></g><g><path d="m58 28v4h-16v-4h6 4 4z" fill="#ccd1d9"/></g><g><path d="m58 32h-16-2v30h20v-30z" fill="#e6e9ed"/></g><g><path d="m50 36h-6v18.81c.88-.52 1.91-.81 3-.81 1.1 0 2.12.3 3 .81 1.27.73 2.24 1.91 2.7 3.33.42-.09.85-.14 1.3-.14.7 0 1.37.12 2 .35v-.01-22.34z" fill="#aab2bd"/></g><g><path d="m40 14h4v6h-4z" fill="#69d6f4"/></g><g><path d="m32 14h4v6h-4z" fill="#69d6f4"/></g><g><path d="m32 24h4v6h-4z" fill="#69d6f4"/></g><g><path d="m32 34h4v6h-4z" fill="#69d6f4"/></g><g><path d="m32 44h4v6h-4z" fill="#69d6f4"/></g><g><path d="m11.01 43.89c-.33.08-.66.11-1.01.11-3.31 0-6-3.13-6-7s2.69-7 6-7c.7 0 1.37.14 2 .4 1.23.5 2.27 1.46 2.98 2.71.65 1.11 1.02 2.44 1.02 3.89 0 3.47-2.16 6.34-4.99 6.89z" fill="#b4dd7f"/></g><g><path d="m19.36 34.19c1.59 1.26 2.64 3.39 2.64 5.81 0 3.87-2.69 7-6 7-2.08 0-3.91-1.23-4.99-3.11 2.83-.55 4.99-3.42 4.99-6.89 0-1.45-.37-2.78-1.02-3.89h.01c.33-.07.66-.11 1.01-.11 1.24 0 2.4.44 3.36 1.19z" fill="#a0d468"/></g><g><ellipse cx="6" cy="51" fill="#a0d468" rx="4" ry="5"/></g><g><path d="m59.66 62h-43.12c-.34-.59-.54-1.27-.54-2 0-2.21 1.79-4 4-4 1.5 0 2.8.82 3.49 2.04l.51-.04c.45 0 .87.09 1.27.22.45-1.45 1.44-2.67 2.73-3.41v-.01c.88-.51 1.91-.8 3-.8 2.26 0 4.23 1.25 5.25 3.1.72-.68 1.68-1.1 2.75-1.1.35 0 .68.04 1 .13.67.17 1.26.51 1.75.97.53-.96 1.31-1.75 2.25-2.29.88-.52 1.91-.81 3-.81 1.1 0 2.12.3 3 .81 1.27.73 2.24 1.91 2.7 3.33.42-.09.85-.14 1.3-.14.7 0 1.37.12 2 .35 1.7.6 3.05 1.95 3.66 3.65z" fill="#b4dd7f"/></g></g><g><path d="m61 61v-30h-2v-4h-2v-6h-2v-4h-2v4h-2v6h-2v-22.22l-6 1.2v-2.98h-2v3.38l-2 .4v-5.78h-2v6.18l-2 .4v-4.58h-2v4.981l-6 1.2v5.819h-18v2h2v12.091c-.328-.054-.66-.091-1-.091-3.859 0-7 3.589-7 8 0 4.022 2.614 7.351 6 7.909v1.303c-.837-.757-1.874-1.212-3-1.212-2.757 0-5 2.691-5 6 0 2.898 1.721 5.321 4 5.879v4.121h-4v2h62v-2zm-44-1c0-1.654 1.346-3 3-3 1.08 0 2.082.585 2.615 1.527l.31.549 1.075-.076c.294 0 .604.057.948.173l.972.326.303-.979c.651-2.105 2.571-3.52 4.777-3.52 1.818 0 3.496.991 4.379 2.587l.625 1.132.938-.89c1.127-1.068 2.988-1.068 4.115 0l.938.89.625-1.132c.884-1.596 2.562-2.587 4.38-2.587 2.171 0 4.081 1.388 4.753 3.454l.281.863.887-.196c1.982-.44 3.919.376 5.058 1.879h-40.785c-.114-.322-.194-.655-.194-1zm42-27v26.137c-.58-.594-1.253-1.083-2-1.441v-22.696h-14v19.27c-.561.392-1.072.858-1.502 1.404-.16-.093-.328-.172-.498-.245v-22.429zm-12 20c-.688 0-1.359.112-2 .304v-16.304h4v16.29c-.637-.189-1.309-.29-2-.29zm4-16h4v20.094c-.543-.079-1.096-.117-1.661-.062-.529-1.133-1.347-2.071-2.339-2.764zm-8-6v-2h14v2zm10-8h2v4h-2zm-6-15.78v19.78h-6v4h-2v24.015c-.872 0-1.743.22-2.498.659-1.315-1.671-3.337-2.674-5.502-2.674-.692 0-1.364.1-2 .287v-42.468zm-34 9.78h14v37.261c-1 .696-1.822 1.643-2.351 2.789-.211-.029-.425-.045-.647-.047-.937-1.249-2.419-2.003-4.002-2.003-2.757 0-5 2.243-5 5 0 .338.045.671.112 1h-4.112v-3.631l6-6.999v-2.461c3.386-.558 6-3.887 6-7.909 0-3.01-1.464-5.635-3.619-7h1.619v-2h-2v1.783c-.911-.497-1.926-.783-3-.783-.172 0-.348.011-.526.028-.661-.949-1.507-1.718-2.474-2.245zm4 20c0-1.05-.183-2.051-.506-2.97 2.526.299 4.506 2.862 4.506 5.97 0 3.309-2.243 6-5 6-1.262 0-2.461-.581-3.376-1.589 2.562-1.189 4.376-4.061 4.376-7.411zm-6 8.581c1.073 1.258 2.472 2.08 4 2.331v1.719l-4 4.667zm-6-8.581c0-3.309 2.243-6 5-6s5 2.691 5 6c0 2.898-1.721 5.321-4 5.879v-6.879h-2v6.879c-2.279-.558-4-2.981-4-5.879zm-2 14c0-2.206 1.346-4 3-4s3 1.794 3 4-1.346 4-3 4-3-1.794-3-4zm4 5.879c.74-.181 1.418-.564 2-1.09v5.211h-2z"/><path d="m37 13h-6v8h6zm-2 6h-2v-4h2z"/><path d="m37 23h-6v8h6zm-2 6h-2v-4h2z"/><path d="m37 33h-6v8h6zm-2 6h-2v-4h2z"/><path d="m37 43h-6v8h6zm-2 6h-2v-4h2z"/><path d="m45 13h-6v8h6zm-2 6h-2v-4h2z"/><path d="m19 19h2v2h-2z"/><path d="m23 19h2v2h-2z"/><path d="m15 19h2v2h-2z"/><path d="m19 23h2v2h-2z"/><path d="m15 23h2v2h-2z"/><path d="m23 23h2v2h-2z"/><path d="m15 27h2v2h-2z"/><path d="m19 27h2v2h-2z"/><path d="m23 27h2v2h-2z"/><path d="m23 31h2v2h-2z"/></g></g></svg>