<svg id="Layer_2" enable-background="new 0 0 64 64" height="512" viewBox="0 0 64 64" width="512" xmlns="http://www.w3.org/2000/svg"><path d="m60.807 25.568v-4.115l-25.807-18.254h-6l-19.806 18.254v4.115z" fill="#db785a"/><path d="m60.807 26.068h-51.613c-.276 0-.5-.224-.5-.5v-4.115c0-.14.059-.273.161-.368l19.807-18.254c.092-.085.213-.132.338-.132h6c.104 0 .204.032.289.092l25.807 18.254c.133.094.211.246.211.408v4.115c0 .276-.224.5-.5.5zm-51.113-1h50.613v-3.356l-25.466-18.013h-5.646l-19.501 17.973z" fill="#63312d"/><path d="m54.807 25.568v-4.115l-25.807-18.254-25.806 18.254v4.115z" fill="#f9a287"/><path d="m5.194 22.453 25.513-18.047-1.707-1.207-25.806 18.254v4.115h2z" fill="#ffc8bb"/><path d="m54.807 26.068h-51.613c-.276 0-.5-.224-.5-.5v-4.115c0-.162.079-.314.211-.408l25.807-18.254c.173-.122.404-.122.577 0l25.807 18.254c.133.094.211.246.211.408v4.115c0 .276-.224.5-.5.5zm-51.113-1h50.613v-3.356l-25.307-17.901-25.307 17.9v3.357z" fill="#63312d"/><path d="m12.583 25.568h44.836v23.086h-44.836z" fill="#efc36a"/><path d="m57.418 49.154h-44.835c-.276 0-.5-.224-.5-.5v-23.086c0-.276.224-.5.5-.5h44.836c.276 0 .5.224.5.5v23.086c-.001.276-.224.5-.501.5zm-44.335-1h43.836v-22.086h-43.836z" fill="#63312d"/><path d="m6.582 25.568h44.836v23.086h-44.836z" fill="#f9dd9d"/><path d="m6.582 25.568h2v23.086h-2z" fill="#ffeecf"/><path d="m51.418 49.154h-44.835c-.276 0-.5-.224-.5-.5v-23.086c0-.276.224-.5.5-.5h44.836c.276 0 .5.224.5.5v23.086c-.001.276-.224.5-.501.5zm-44.335-1h43.836v-22.086h-43.836z" fill="#63312d"/><path d="m9.194 48.654h51.613v4.648h-51.613z" fill="#d1d1d1"/><path d="m60.807 53.801h-51.613c-.276 0-.5-.224-.5-.5v-4.647c0-.276.224-.5.5-.5h51.613c.276 0 .5.224.5.5v4.647c0 .277-.224.5-.5.5zm-51.113-1h50.613v-3.647h-50.613z" fill="#63312d"/><path d="m3.194 48.654h51.613v4.648h-51.613z" fill="#f8f3f3"/><path d="m54.807 53.801h-51.613c-.276 0-.5-.224-.5-.5v-4.647c0-.276.224-.5.5-.5h51.613c.276 0 .5.224.5.5v4.647c0 .277-.224.5-.5.5zm-51.113-1h50.613v-3.647h-50.613z" fill="#63312d"/><path d="m10.583 53.301h4.35v7.5h-4.35z" fill="#db785a"/><path d="m14.932 61.301h-4.35c-.276 0-.5-.224-.5-.5v-7.5c0-.276.224-.5.5-.5h4.35c.276 0 .5.224.5.5v7.5c0 .277-.224.5-.5.5zm-3.849-1h3.35v-6.5h-3.35z" fill="#63312d"/><path d="m6.582 53.301h4.35v7.5h-4.35z" fill="#f9a287"/><path d="m22.27 53.301h4.35v7.5h-4.35z" fill="#db785a"/><path d="m26.62 61.301h-4.35c-.276 0-.5-.224-.5-.5v-7.5c0-.276.224-.5.5-.5h4.35c.276 0 .5.224.5.5v7.5c0 .277-.224.5-.5.5zm-3.85-1h3.35v-6.5h-3.35z" fill="#63312d"/><path d="m18.27 53.301h4.35v7.5h-4.35z" fill="#f9a287"/><path d="m41.381 53.301h4.35v7.5h-4.35z" fill="#db785a"/><path d="m45.731 61.301h-4.35c-.276 0-.5-.224-.5-.5v-7.5c0-.276.224-.5.5-.5h4.35c.276 0 .5.224.5.5v7.5c0 .277-.224.5-.5.5zm-3.85-1h3.35v-6.5h-3.35z" fill="#63312d"/><path d="m37.381 53.301h4.35v7.5h-4.35z" fill="#f9a287"/><path d="m53.069 53.301h4.35v7.5h-4.35z" fill="#db785a"/><path d="m57.418 61.301h-4.35c-.276 0-.5-.224-.5-.5v-7.5c0-.276.224-.5.5-.5h4.35c.276 0 .5.224.5.5v7.5c0 .277-.223.5-.5.5zm-3.849-1h3.35v-6.5h-3.35z" fill="#63312d"/><path d="m49.069 53.301h4.35v7.5h-4.35z" fill="#f9a287"/><g fill="#63312d"><path d="m10.932 61.301h-4.35c-.276 0-.5-.224-.5-.5v-7.5c0-.276.224-.5.5-.5h4.35c.276 0 .5.224.5.5v7.5c0 .277-.224.5-.5.5zm-3.849-1h3.35v-6.5h-3.35z"/><path d="m22.62 61.301h-4.35c-.276 0-.5-.224-.5-.5v-7.5c0-.276.224-.5.5-.5h4.35c.276 0 .5.224.5.5v7.5c0 .277-.224.5-.5.5zm-3.85-1h3.35v-6.5h-3.35z"/><path d="m41.731 61.301h-4.35c-.276 0-.5-.224-.5-.5v-7.5c0-.276.224-.5.5-.5h4.35c.276 0 .5.224.5.5v7.5c0 .277-.224.5-.5.5zm-3.85-1h3.35v-6.5h-3.35z"/><path d="m53.418 61.301h-4.35c-.276 0-.5-.224-.5-.5v-7.5c0-.276.224-.5.5-.5h4.35c.276 0 .5.224.5.5v7.5c0 .277-.223.5-.5.5zm-3.849-1h3.35v-6.5h-3.35z"/></g><path d="m14.011 34.603h10.819v14.051h-10.819z" fill="#f9a287"/><path d="m14.011 34.603h2v14.051h-2z" fill="#ffc8bb"/><path d="m24.831 34.603c-.848-2.163-2.947-3.696-5.41-3.696-2.462 0-4.562 1.533-5.409 3.696z" fill="#82d9ff"/><path d="m20.42 31c-.325-.057-.658-.093-1-.093-2.462 0-4.562 1.533-5.409 3.696h2c.729-1.862 2.391-3.252 4.409-3.603z" fill="#caf4ff"/><path d="m33.17 34.603h10.819v14.051h-10.819z" fill="#f9a287"/><path d="m43.99 34.603c-.847-2.163-2.947-3.696-5.409-3.696-2.463 0-4.563 1.533-5.41 3.696z" fill="#82d9ff"/><path d="m24.831 49.154h-10.82c-.276 0-.5-.224-.5-.5v-14.051c0-.276.224-.5.5-.5h10.819c.276 0 .5.224.5.5v14.051c.001.276-.223.5-.499.5zm-10.32-1h9.819v-13.051h-9.819z" fill="#63312d"/><path d="m33.17 34.603h2v14.051h-2z" fill="#ffc8bb"/><path d="m15.511 40.556h1v2.146h-1z" fill="#63312d"/><path d="m34.67 40.556h1v2.146h-1z" fill="#63312d"/><path d="m39.58 31c-.325-.057-.658-.093-1-.093-2.462 0-4.563 1.533-5.409 3.696h2c.728-1.862 2.39-3.252 4.409-3.603z" fill="#caf4ff"/><path d="m24.831 35.103h-10.82c-.165 0-.32-.082-.413-.218s-.113-.31-.053-.464c.955-2.438 3.261-4.014 5.875-4.014s4.92 1.576 5.875 4.014c.061.154.041.328-.052.464s-.247.218-.412.218zm-10.031-1h9.242c-.934-1.659-2.676-2.696-4.621-2.696-1.946 0-3.688 1.037-4.621 2.696z" fill="#63312d"/><path d="m43.99 49.154h-10.82c-.276 0-.5-.224-.5-.5v-14.051c0-.276.224-.5.5-.5h10.82c.276 0 .5.224.5.5v14.051c0 .276-.224.5-.5.5zm-10.32-1h9.819v-13.051h-9.819z" fill="#63312d"/><path d="m43.99 35.103h-10.82c-.166 0-.32-.082-.413-.218s-.113-.31-.052-.464c.955-2.438 3.262-4.014 5.875-4.014 2.614 0 4.92 1.576 5.875 4.014.06.154.041.328-.053.464-.092.136-.247.218-.412.218zm-10.031-1h9.242c-.933-1.659-2.675-2.696-4.621-2.696-1.944 0-3.687 1.037-4.621 2.696z" fill="#63312d"/></svg>