<?xml version="1.0" encoding="utf-8"?>
<!-- Generator: Adobe Illustrator 24.2.1, SVG Export Plug-In . SVG Version: 6.00 Build 0)  -->
<svg version="1.1" id="Layer_1" xmlns="http://www.w3.org/2000/svg" xmlns:xlink="http://www.w3.org/1999/xlink" x="0px" y="0px"
	 viewBox="0 0 480 480" style="enable-background:new 0 0 480 480;" xml:space="preserve">
<style type="text/css">
	.st0{fill:#FCD70D;}
</style>
<g>
	<g>
		<polygon class="st0" points="92.31,252.99 91.17,252.99 91.17,355.22 125.35,320.4 125.35,286.02 		"/>
	</g>
</g>
<g>
	<g>
		<polygon class="st0" points="390.78,354.41 391.92,354.41 391.92,252.17 357.74,287 357.74,321.37 		"/>
	</g>
</g>
<g>
	<g>
		<polygon class="st0" points="124.21,440.97 125.35,440.97 125.35,338.73 91.17,373.56 91.17,407.93 		"/>
	</g>
</g>
<g>
	<g>
		<polygon class="st0" points="203.93,243.9 203.93,242.76 101.7,242.76 136.52,276.94 170.89,276.94 		"/>
	</g>
</g>
<g>
	<g>
		<polygon class="st0" points="192.54,275.8 192.54,276.94 294.78,276.94 259.95,242.76 225.58,242.76 		"/>
	</g>
</g>
<g>
	<g>
		<polygon class="st0" points="381.67,243.9 381.67,242.76 279.43,242.76 314.25,276.94 348.63,276.94 		"/>
	</g>
</g>
<g>
	<g>
		<polygon class="st0" points="358.88,339.6 357.74,339.6 357.74,441.84 391.92,407.01 391.92,372.64 		"/>
	</g>
</g>
<g>
	<g>
		<polygon class="st0" points="286.5,108.44 285.72,109.22 355.3,178.8 354.86,131.83 331.47,108.44 		"/>
	</g>
</g>
<g>
	<g>
		<polygon class="st0" points="314.45,96.38 315.23,95.6 245.65,26.03 246.09,72.99 269.48,96.38 		"/>
	</g>
</g>
<g>
	<g>
		<polygon class="st0" points="232.49,27.58 231.71,26.8 162.14,96.38 209.1,95.94 232.49,72.55 		"/>
	</g>
</g>
<g>
	<g>
		<polygon class="st0" points="127.22,177.24 128,178.02 197.58,108.44 150.61,108.88 127.22,132.27 		"/>
	</g>
</g>
<g>
	<g>
		<polygon class="st0" points="114.06,143.81 113.29,143.03 43.71,212.61 90.67,212.17 114.06,188.78 		"/>
	</g>
</g>
<g>
	<g>
		<polygon class="st0" points="436.17,213.71 436.94,212.93 367.36,143.36 367.8,190.32 391.19,213.71 		"/>
	</g>
</g>
<g>
	<g>
		<polygon class="st0" points="249.35,295.98 248.64,295.24 182.37,358.09 226.06,358.95 248.34,337.82 		"/>
	</g>
</g>
<g>
	<g>
		<polygon class="st0" points="241.68,449.93 242.37,450.66 308.45,388.54 265.26,387.71 243.05,408.59 		"/>
	</g>
</g>
<g>
	<g>
		<polygon class="st0" points="273.62,359.15 273.62,358.13 182.43,358.13 213.49,388.62 244.15,388.62 		"/>
	</g>
</g>
<g>
	<g>
		<polygon class="st0" points="216.9,387.6 216.9,388.62 308.36,388.62 277.2,358.13 246.45,358.13 		"/>
	</g>
</g>
<g>
	<g>
		<polygon class="st0" points="403.2,224.33 402.42,225.1 472,294.68 471.56,247.72 448.17,224.33 		"/>
	</g>
</g>
<g>
	<g>
		<polygon class="st0" points="10,291.97 10.78,292.74 80.35,223.16 33.39,223.6 10,246.99 		"/>
	</g>
</g>
</svg>
